<svg xmlns="http://www.w3.org/2000/svg" width="30" height="30" viewBox="0 0 44 44" fill="none">
    <path
        d="M22 3.66669C32.1255 3.66669 40.3333 11.8745 40.3333 22C40.3333 32.1255 32.1255 40.3334 22 40.3334C11.8745 40.3334 3.66663 32.1255 3.66663 22C3.66663 11.8745 11.8745 3.66669 22 3.66669ZM18.1115 15.5174C17.7823 15.1851 17.3386 14.9911 16.8711 14.9753C16.4037 14.9594 15.9478 15.1228 15.5969 15.432C15.246 15.7413 15.0265 16.1729 14.9834 16.6387C14.9403 17.1044 15.0769 17.569 15.3651 17.9374L15.5191 18.1115L19.4058 21.9982L15.5191 25.8885C15.1868 26.2177 14.9929 26.6614 14.977 27.1289C14.9612 27.5963 15.1246 28.0522 15.4338 28.4031C15.743 28.754 16.1747 28.9735 16.6404 29.0166C17.1062 29.0596 17.5708 28.9231 17.9391 28.6349L18.1115 28.4827L22 24.5924L25.8885 28.4827C26.2176 28.815 26.6613 29.0089 27.1288 29.0248C27.5963 29.0406 28.0521 28.8772 28.403 28.568C28.7539 28.2588 28.9734 27.8271 29.0165 27.3614C29.0596 26.8956 28.923 26.431 28.6348 26.0627L28.4826 25.8885L24.5923 22L28.4826 18.1115C28.8149 17.7824 29.0089 17.3386 29.0247 16.8712C29.0406 16.4037 28.8772 15.9479 28.5679 15.597C28.2587 15.246 27.8271 15.0266 27.3613 14.9835C26.8956 14.9404 26.431 15.0769 26.0626 15.3652L25.8885 15.5174L22 19.4077L18.1115 15.5174Z"
        fill="#09244B" />
</svg>