<svg xmlns="http://www.w3.org/2000/svg" width="30" height="30" viewBox="0 0 44 44" fill="none">
    <path
        d="M22 3.66669C32.1255 3.66669 40.3333 11.8745 40.3333 22C40.3333 32.1255 32.1255 40.3334 22 40.3334C11.8745 40.3334 3.66663 32.1255 3.66663 22C3.66663 11.8745 11.8745 3.66669 22 3.66669ZM28.4808 15.3652L19.4058 24.4402L15.5191 20.5517C15.3489 20.3814 15.1468 20.2462 14.9244 20.154C14.7019 20.0617 14.4635 20.0142 14.2227 20.0141C13.7364 20.014 13.2699 20.207 12.9259 20.5508C12.5819 20.8945 12.3885 21.3609 12.3883 21.8472C12.3882 22.3335 12.5812 22.8 12.925 23.144L17.9813 28.2004C18.1686 28.3877 18.3909 28.5364 18.6357 28.6378C18.8804 28.7392 19.1427 28.7914 19.4076 28.7914C19.6725 28.7914 19.9349 28.7392 20.1796 28.6378C20.4243 28.5364 20.6467 28.3877 20.834 28.2004L31.075 17.9594C31.419 17.6153 31.6122 17.1488 31.6122 16.6623C31.6122 16.1758 31.419 15.7092 31.075 15.3652C30.731 15.0212 30.2644 14.8279 29.7779 14.8279C29.2914 14.8279 28.8248 15.0212 28.4808 15.3652Z"
        fill="#09244B" />
</svg>