<svg xmlns="http://www.w3.org/2000/svg" width="30" height="30" viewBox="0 0 44 44" fill="none">
    <path fill-rule="evenodd" clip-rule="evenodd"
        d="M26.18 3.66669C26.9496 3.66689 27.6995 3.90921 28.3237 4.35933C28.9479 4.80946 29.4147 5.44456 29.6578 6.17469L30.6533 9.16669H36.6667C37.1529 9.16669 37.6192 9.35984 37.963 9.70366C38.3068 10.0475 38.5 10.5138 38.5 11C38.5 11.4863 38.3068 11.9526 37.963 12.2964C37.6192 12.6402 37.1529 12.8334 36.6667 12.8334L36.6612 12.9635L35.0717 35.2257C34.9725 36.6128 34.3515 37.9109 33.3337 38.8585C32.316 39.8062 30.977 40.3332 29.5863 40.3334H14.4137C13.023 40.3332 11.684 39.8062 10.6663 38.8585C9.64851 37.9109 9.02753 36.6128 8.92833 35.2257L7.33883 12.9617C7.33552 12.919 7.33368 12.8762 7.33333 12.8334C6.8471 12.8334 6.38079 12.6402 6.03697 12.2964C5.69315 11.9526 5.5 11.4863 5.5 11C5.5 10.5138 5.69315 10.0475 6.03697 9.70366C6.38079 9.35984 6.8471 9.16669 7.33333 9.16669H13.3467L14.3422 6.17469C14.5854 5.44427 15.0525 4.80895 15.677 4.3588C16.3016 3.90865 17.052 3.6665 17.8218 3.66669H26.18ZM16.5 18.3334C16.051 18.3334 15.6175 18.4983 15.282 18.7967C14.9464 19.0951 14.732 19.5062 14.6795 19.9522L14.6667 20.1667V31.1667C14.6672 31.634 14.8461 32.0834 15.1669 32.4232C15.4877 32.763 15.9261 32.9675 16.3926 32.9948C16.859 33.0222 17.3184 32.8705 17.6767 32.5705C18.035 32.2706 18.2653 31.8452 18.3205 31.3812L18.3333 31.1667V20.1667C18.3333 19.6805 18.1402 19.2141 17.7964 18.8703C17.4525 18.5265 16.9862 18.3334 16.5 18.3334ZM27.5 18.3334C27.0138 18.3334 26.5475 18.5265 26.2036 18.8703C25.8598 19.2141 25.6667 19.6805 25.6667 20.1667V31.1667C25.6667 31.6529 25.8598 32.1192 26.2036 32.4631C26.5475 32.8069 27.0138 33 27.5 33C27.9862 33 28.4525 32.8069 28.7964 32.4631C29.1402 32.1192 29.3333 31.6529 29.3333 31.1667V20.1667C29.3333 19.6805 29.1402 19.2141 28.7964 18.8703C28.4525 18.5265 27.9862 18.3334 27.5 18.3334ZM26.18 7.33335H17.82L17.2095 9.16669H26.7905L26.18 7.33335Z"
        fill="#09244B" />
</svg>