<svg xmlns="http://www.w3.org/2000/svg" width="30" height="30" viewBox="0 0 44 44" fill="none">
    <path
        d="M31.1666 5.5C32.5695 5.49992 33.9194 6.03593 34.9401 6.99835C35.9608 7.96078 36.5752 9.27686 36.6575 10.6773L36.6666 11V18.975L37.7556 18.491C38.8813 17.9905 40.1793 18.766 40.3223 19.954L40.3333 20.1667V34.8333C40.3336 35.7584 39.9842 36.6494 39.3552 37.3277C38.7262 38.006 37.8641 38.4215 36.9416 38.4908L36.6666 38.5H7.33329C6.40824 38.5003 5.51725 38.1509 4.83895 37.5219C4.16066 36.8929 3.74517 36.0308 3.67579 35.1083L3.66663 34.8333V20.1667C3.66663 18.9347 4.90413 18.0638 6.04446 18.4158L6.24613 18.491L7.33329 18.975V11C7.33321 9.59711 7.86922 8.24722 8.83165 7.22652C9.79407 6.20582 11.1102 5.59147 12.5106 5.50917L12.8333 5.5H31.1666ZM31.1666 9.16667H12.8333C12.3471 9.16667 11.8807 9.35982 11.5369 9.70364C11.1931 10.0475 11 10.5138 11 11V20.6048L22 25.4943L33 20.6048V11C33 10.5138 32.8068 10.0475 32.463 9.70364C32.1192 9.35982 31.6529 9.16667 31.1666 9.16667ZM22 14.6667C22.4672 14.6672 22.9167 14.8461 23.2565 15.1669C23.5963 15.4877 23.8007 15.9261 23.8281 16.3926C23.8555 16.859 23.7037 17.3184 23.4038 17.6767C23.1039 18.035 22.6785 18.2653 22.2145 18.3205L22 18.3333H18.3333C17.866 18.3328 17.4166 18.1539 17.0768 17.8331C16.737 17.5123 16.5325 17.0739 16.5051 16.6074C16.4778 16.141 16.6295 15.6816 16.9294 15.3233C17.2294 14.965 17.6548 14.7347 18.1188 14.6795L18.3333 14.6667H22Z"
        fill="#09244B" />
</svg>